<?xml version="1.0" encoding="utf-8"?>
<!-- Generator: Adobe Illustrator 23.0.2, SVG Export Plug-In . SVG Version: 6.00 Build 0)  -->
<svg version="1.1" id="图层_1" xmlns="http://www.w3.org/2000/svg" xmlns:xlink="http://www.w3.org/1999/xlink" x="0px" y="0px"
	 viewBox="0 0 263.4 267.4" style="enable-background:new 0 0 263.4 267.4;" xml:space="preserve">
<style type="text/css">
	.st0{fill:#3B3E3F;}
	.st1{clip-path:url(#SVGID_2_);fill:#E7A642;}
</style>
<circle class="st0" cx="131.7" cy="133.7" r="21.5"/>
<g>
	<g>
		<defs>
			<rect id="SVGID_1_" x="119.2" y="120.9" width="25.3" height="23.2"/>
		</defs>
		<clipPath id="SVGID_2_">
			<use xlink:href="#SVGID_1_"  style="overflow:visible;"/>
		</clipPath>
		<path class="st1" d="M138.2,128.4l0.1,0.1l2.4-2.4c0.2-0.2,0.2-0.5,0.2-0.7c0-0.2-0.1-0.5-0.2-0.7c-0.4-0.3-0.9-0.2-1.3,0.1
			l-2.4,2.4l0.2,0.1C137.5,127.8,137.9,128,138.2,128.4L138.2,128.4z M123.4,132.6h-3.3c-0.5,0-0.9,0.4-0.9,0.9
			c0,0.5,0.4,0.9,0.9,0.9h3.3V132.6z M132.7,121.9c0-0.2-0.1-0.5-0.3-0.7c-0.2-0.2-0.4-0.3-0.7-0.3c-0.5,0-0.9,0.4-0.9,0.9v3.6h1.8
			V121.9z M125.4,128.5l0.1-0.1c0.3-0.4,0.6-0.8,1-1l0.2-0.1l-2.5-2.5c-0.5-0.3-1-0.3-1.4,0c-0.1,0.2-0.2,0.4-0.2,0.7
			c0,0.2,0.1,0.5,0.2,0.7L125.4,128.5z M143.5,132.6h-3.3v1.9h3.3c0.5,0,0.9-0.4,0.9-0.9C144.4,133,144,132.6,143.5,132.6
			L143.5,132.6z M134,134.7h-2.1l1.1-1.2c0.2-0.2,0.2-0.5,0.2-0.7c0-0.2-0.1-0.5-0.2-0.7c-0.3-0.3-0.9-0.3-1.3,0l-2.8,2.7
			c-0.3,0.4-0.3,0.9,0,1.3c0.2,0.2,0.6,0.3,1,0.3h2l-1.6,1.9c-0.2,0.2-0.2,0.5-0.2,0.7c0,0.2,0.1,0.5,0.2,0.7
			c0.2,0.2,0.5,0.2,0.7,0.2c0.2,0,0.5-0.1,0.7-0.2l2.8-2.8c0.3-0.3,0.5-0.7,0.5-1.2C135,135.2,134.7,134.7,134,134.7L134,134.7z
			 M140.6,142.2h-1.5v-8.4c0-4.1-3.3-7.4-7.3-7.4c-4,0-7.3,3.4-7.3,7.4v8.4H123c-0.5,0-0.9,0.4-0.9,0.9c0,0.5,0.4,0.9,0.9,0.9h17.7
			c0.5,0,0.9-0.4,0.9-0.9C141.6,142.7,141.1,142.2,140.6,142.2L140.6,142.2z M137.3,142.2"/>
	</g>
</g>
</svg>
