# 3ds Max Wavefront OBJ Exporter v0.97b - (c)2007 guruware
# 创建的文件:18.07.2019 14:00:04

mtllib matongquan.mtl

#
# object Donut002
#

v  1190.8478 370.4432 8.8294
v  1187.8362 362.0263 8.8294
v  1187.8362 362.0263 18.8294
v  1190.8478 370.4432 18.8294
v  1183.1115 354.5990 8.8294
v  1183.1115 354.5990 18.8294
v  1176.9149 348.4024 8.8294
v  1176.9149 348.4024 18.8294
v  1169.4875 343.6777 8.8294
v  1169.4875 343.6777 18.8294
v  1161.0707 340.6660 8.8294
v  1161.0707 340.6660 18.8294
v  1151.9053 339.6086 8.8294
v  1151.9053 339.6086 18.8294
v  1142.7399 340.6660 8.8294
v  1142.7399 340.6660 18.8294
v  1134.3230 343.6777 8.8294
v  1134.3230 343.6777 18.8294
v  1126.8958 348.4024 8.8294
v  1126.8958 348.4024 18.8294
v  1120.6991 354.5990 8.8294
v  1120.6991 354.5990 18.8294
v  1115.9744 362.0263 8.8294
v  1115.9744 362.0263 18.8294
v  1112.9628 370.4432 8.8294
v  1112.9628 370.4432 18.8294
v  1111.9053 379.6086 8.8294
v  1111.9053 379.6086 18.8294
v  1112.9628 388.7739 8.8294
v  1112.9628 388.7739 18.8294
v  1115.9744 397.1908 8.8294
v  1115.9744 397.1908 18.8294
v  1120.6991 404.6181 8.8294
v  1120.6991 404.6181 18.8294
v  1126.8956 410.8147 8.8294
v  1126.8956 410.8147 18.8294
v  1134.3230 415.5394 8.8294
v  1134.3230 415.5394 18.8294
v  1142.7399 418.5511 8.8294
v  1142.7399 418.5511 18.8294
v  1151.9053 419.6086 8.8294
v  1151.9053 419.6086 18.8294
v  1161.0707 418.5511 8.8294
v  1161.0707 418.5511 18.8294
v  1169.4875 415.5394 8.8294
v  1169.4875 415.5394 18.8294
v  1176.9149 410.8147 8.8294
v  1176.9149 410.8147 18.8294
v  1183.1115 404.6181 8.8294
v  1183.1115 404.6181 18.8294
v  1187.8362 397.1908 8.8294
v  1187.8362 397.1908 18.8294
v  1190.8478 388.7739 8.8294
v  1190.8478 388.7739 18.8294
v  1191.9053 379.6086 8.8294
v  1191.9053 379.6086 18.8294
v  1187.8362 362.0263 28.8294
v  1190.8478 370.4432 28.8294
v  1183.1115 354.5990 28.8294
v  1176.9149 348.4024 28.8294
v  1169.4875 343.6777 28.8294
v  1161.0707 340.6660 28.8294
v  1151.9053 339.6086 28.8294
v  1142.7399 340.6660 28.8294
v  1134.3230 343.6777 28.8294
v  1126.8958 348.4024 28.8294
v  1120.6991 354.5989 28.8294
v  1115.9744 362.0263 28.8294
v  1112.9628 370.4432 28.8294
v  1111.9053 379.6086 28.8294
v  1112.9628 388.7739 28.8294
v  1115.9744 397.1908 28.8294
v  1120.6991 404.6181 28.8294
v  1126.8956 410.8147 28.8294
v  1134.3230 415.5394 28.8294
v  1142.7399 418.5511 28.8294
v  1151.9053 419.6086 28.8294
v  1161.0707 418.5511 28.8294
v  1169.4875 415.5394 28.8294
v  1176.9149 410.8147 28.8294
v  1183.1115 404.6181 28.8294
v  1187.8362 397.1908 28.8294
v  1190.8478 388.7739 28.8294
v  1191.9053 379.6086 28.8294
v  1226.9053 379.6086 8.8294
v  1224.9225 396.7936 8.8294
v  1224.9225 396.7936 18.8294
v  1226.9053 379.6086 18.8294
v  1219.2756 412.5753 8.8294
v  1219.2756 412.5753 18.8294
v  1210.4169 426.5015 8.8294
v  1210.4169 426.5015 18.8294
v  1198.7982 438.1201 8.8294
v  1198.7982 438.1201 18.8294
v  1184.8721 446.9789 8.8294
v  1184.8721 446.9789 18.8294
v  1169.0903 452.6258 8.8294
v  1169.0903 452.6258 18.8294
v  1151.9053 454.6086 8.8294
v  1151.9053 454.6086 18.8294
v  1134.7202 452.6258 8.8294
v  1134.7202 452.6258 18.8294
v  1118.9385 446.9789 8.8294
v  1118.9385 446.9789 18.8294
v  1105.0123 438.1201 8.8294
v  1105.0123 438.1201 18.8294
v  1093.3937 426.5015 8.8294
v  1093.3937 426.5015 18.8294
v  1084.5349 412.5753 8.8294
v  1084.5349 412.5753 18.8294
v  1078.8881 396.7936 8.8294
v  1078.8881 396.7936 18.8294
v  1076.9053 379.6086 8.8294
v  1076.9053 379.6086 18.8294
v  1079.7478 360.3408 8.8294
v  1079.7478 360.3408 18.8294
v  1087.4009 339.1877 8.8294
v  1087.4009 339.1877 18.8294
v  1098.5525 319.3477 8.8294
v  1098.5525 319.3477 18.8294
v  1111.8907 303.1996 8.8294
v  1111.8907 303.1996 18.8294
v  1126.1035 290.5661 8.8294
v  1126.1035 290.5661 18.8294
v  1139.8790 279.9072 8.8294
v  1139.8790 279.9072 18.8294
v  1150.2644 275.1995 8.8294
v  1150.2644 275.1995 18.8294
v  1153.5461 275.1995 8.8294
v  1163.9315 279.9072 8.8294
v  1163.9315 279.9072 18.8294
v  1153.5461 275.1995 18.8294
v  1177.7070 290.5661 8.8294
v  1177.7070 290.5661 18.8294
v  1191.9198 303.1997 8.8294
v  1191.9198 303.1997 18.8294
v  1205.2581 319.3477 8.8294
v  1205.2581 319.3477 18.8294
v  1216.4097 339.1877 8.8294
v  1216.4097 339.1877 18.8294
v  1224.0627 360.3408 8.8294
v  1224.0627 360.3408 18.8294
v  1224.9225 396.7936 28.8294
v  1226.9053 379.6086 28.8294
v  1219.2756 412.5753 28.8294
v  1210.4169 426.5015 28.8294
v  1198.7982 438.1201 28.8294
v  1184.8721 446.9789 28.8294
v  1169.0903 452.6258 28.8294
v  1151.9053 454.6086 28.8294
v  1134.7202 452.6258 28.8294
v  1118.9385 446.9789 28.8294
v  1105.0123 438.1201 28.8294
v  1093.3937 426.5015 28.8294
v  1084.5349 412.5753 28.8294
v  1078.8881 396.7936 28.8294
v  1076.9053 379.6086 28.8294
v  1079.7478 360.3408 28.8294
v  1087.4009 339.1877 28.8294
v  1098.5525 319.3477 28.8294
v  1111.8907 303.1996 28.8294
v  1126.1035 290.5661 28.8294
v  1139.8790 279.9072 28.8294
v  1150.2644 275.1995 28.8294
v  1163.9315 279.9072 28.8294
v  1153.5461 275.1995 28.8294
v  1177.7070 290.5661 28.8294
v  1191.9198 303.1997 28.8294
v  1205.2581 319.3477 28.8294
v  1216.4097 339.1877 28.8294
v  1224.0627 360.3408 28.8294
v  1152.4523 274.9529 8.8294
v  1151.3583 274.9529 8.8294
v  1151.3583 275.2004 28.8294
v  1152.4523 275.2004 28.8294
v  1151.3583 274.9529 18.8294
v  1152.4523 274.9529 18.8294
# 177 vertices

vn -0.9738 0.2272 0.0000
vn -0.8982 0.4395 0.0000
vn -0.7801 0.6257 0.0000
vn -0.6257 0.7801 0.0000
vn -0.4395 0.8982 0.0000
vn -0.2272 0.9738 0.0000
vn 0.0000 1.0000 0.0000
vn 0.2272 0.9738 0.0000
vn 0.4395 0.8982 0.0000
vn 0.6257 0.7801 0.0000
vn 0.7801 0.6257 0.0000
vn 0.8982 0.4395 0.0000
vn 0.9738 0.2272 0.0000
vn 1.0000 0.0000 0.0000
vn 0.9738 -0.2272 -0.0000
vn 0.8982 -0.4395 -0.0000
vn 0.7801 -0.6257 -0.0000
vn 0.6257 -0.7801 -0.0000
vn 0.4395 -0.8982 -0.0000
vn 0.2272 -0.9738 -0.0000
vn -0.0000 -1.0000 -0.0000
vn -0.2272 -0.9738 -0.0000
vn -0.4395 -0.8982 -0.0000
vn -0.6257 -0.7801 -0.0000
vn -0.7801 -0.6257 -0.0000
vn -0.8982 -0.4395 -0.0000
vn -0.9738 -0.2272 -0.0000
vn -1.0000 0.0000 0.0000
vn 0.9999 -0.0158 -0.0000
vn -0.0000 1.0000 0.0000
vn -0.9999 -0.0158 -0.0000
vn -0.9697 -0.2443 -0.0000
vn -0.9091 -0.4165 -0.0000
vn -0.8246 -0.5657 -0.0000
vn -0.7198 -0.6942 -0.0000
vn -0.6385 -0.7696 -0.0000
vn -0.5159 -0.8566 -0.0000
vn -0.3180 -0.9481 -0.0000
vn -0.3144 -0.9493 0.0057
vn 0.3180 -0.9481 -0.0000
vn 0.5159 -0.8566 -0.0000
vn 0.6385 -0.7696 -0.0000
vn 0.7198 -0.6942 -0.0000
vn 0.8246 -0.5657 0.0000
vn 0.8246 -0.5657 -0.0000
vn 0.9091 -0.4165 -0.0000
vn 0.9697 -0.2443 -0.0000
vn -0.2108 -0.9775 -0.0000
vn 0.2184 -0.9758 0.0118
vn -0.0000 0.0000 -1.0000
vn 0.0000 0.0000 -1.0000
vn 0.0000 -0.0000 1.0000
vn -0.0000 -0.0000 1.0000
vn -0.1106 -0.9939 -0.0000
vn -0.1105 -0.9938 0.0123
vn -0.0074 -0.9999 0.0132
vn 0.1106 -0.9939 -0.0000
vn 0.1067 -0.9943 0.0067
vn -0.0004 -0.9997 0.0247
# 59 vertex normals

g Donut002
usemtl wire_002036166
s 1
f 1//1 2//2 3//2 4//1 
f 2//2 5//3 6//3 3//2 
f 5//3 7//4 8//4 6//3 
f 7//4 9//5 10//5 8//4 
f 9//5 11//6 12//6 10//5 
f 11//6 13//7 14//7 12//6 
f 13//7 15//8 16//8 14//7 
f 15//8 17//9 18//9 16//8 
f 17//9 19//10 20//10 18//9 
f 19//10 21//11 22//11 20//10 
f 21//11 23//12 24//12 22//11 
f 23//12 25//13 26//13 24//12 
f 25//13 27//14 28//14 26//13 
f 27//14 29//15 30//15 28//14 
f 29//15 31//16 32//16 30//15 
f 31//16 33//17 34//17 32//16 
f 33//17 35//18 36//18 34//17 
f 35//18 37//19 38//19 36//18 
f 37//19 39//20 40//20 38//19 
f 39//20 41//21 42//21 40//20 
f 41//21 43//22 44//22 42//21 
f 43//22 45//23 46//23 44//22 
f 45//23 47//24 48//24 46//23 
f 47//24 49//25 50//25 48//24 
f 49//25 51//26 52//26 50//25 
f 51//26 53//27 54//27 52//26 
f 53//27 55//28 56//28 54//27 
f 55//28 1//1 4//1 56//28 
f 4//1 3//2 57//2 58//1 
f 3//2 6//3 59//3 57//2 
f 6//3 8//4 60//4 59//3 
f 8//4 10//5 61//5 60//4 
f 10//5 12//6 62//6 61//5 
f 12//6 14//7 63//7 62//6 
f 14//7 16//8 64//8 63//7 
f 16//8 18//9 65//9 64//8 
f 18//9 20//10 66//10 65//9 
f 20//10 22//11 67//11 66//10 
f 22//11 24//12 68//12 67//11 
f 24//12 26//13 69//13 68//12 
f 26//13 28//14 70//14 69//13 
f 28//14 30//15 71//15 70//14 
f 30//15 32//16 72//16 71//15 
f 32//16 34//17 73//17 72//16 
f 34//17 36//18 74//18 73//17 
f 36//18 38//19 75//19 74//18 
f 38//19 40//20 76//20 75//19 
f 40//20 42//21 77//21 76//20 
f 42//21 44//22 78//22 77//21 
f 44//22 46//23 79//23 78//22 
f 46//23 48//24 80//24 79//23 
f 48//24 50//25 81//25 80//24 
f 50//25 52//26 82//26 81//25 
f 52//26 54//27 83//27 82//26 
f 54//27 56//28 84//28 83//27 
f 56//28 4//1 58//1 84//28 
f 85//29 86//13 87//13 88//29 
f 86//13 89//12 90//12 87//13 
f 89//12 91//11 92//11 90//12 
f 91//11 93//10 94//10 92//11 
f 93//10 95//9 96//9 94//10 
f 95//9 97//8 98//8 96//9 
f 97//8 99//30 100//30 98//8 
f 99//30 101//6 102//6 100//30 
f 101//6 103//5 104//5 102//6 
f 103//5 105//4 106//4 104//5 
f 105//4 107//3 108//3 106//4 
f 107//3 109//2 110//2 108//3 
f 109//2 111//1 112//1 110//2 
f 111//1 113//31 114//31 112//1 
f 113//31 115//32 116//32 114//31 
f 115//32 117//33 118//33 116//32 
f 117//33 119//34 120//34 118//33 
f 119//34 121//35 122//35 120//34 
f 121//35 123//36 124//36 122//35 
f 123//36 125//37 126//37 124//36 
f 125//37 127//38 128//39 126//37 
f 129//40 130//41 131//41 132//40 
f 130//41 133//42 134//42 131//41 
f 133//42 135//43 136//43 134//42 
f 135//43 137//44 138//45 136//43 
f 137//44 139//46 140//46 138//45 
f 139//46 141//47 142//47 140//46 
f 141//47 85//29 88//29 142//47 
f 88//29 87//13 143//13 144//29 
f 87//13 90//12 145//12 143//13 
f 90//12 92//11 146//11 145//12 
f 92//11 94//10 147//10 146//11 
f 94//10 96//9 148//9 147//10 
f 96//9 98//8 149//8 148//9 
f 98//8 100//30 150//30 149//8 
f 100//30 102//6 151//6 150//30 
f 102//6 104//5 152//5 151//6 
f 104//5 106//4 153//4 152//5 
f 106//4 108//3 154//3 153//4 
f 108//3 110//2 155//2 154//3 
f 110//2 112//1 156//1 155//2 
f 112//1 114//31 157//31 156//1 
f 114//31 116//32 158//32 157//31 
f 116//32 118//33 159//33 158//32 
f 118//33 120//34 160//34 159//33 
f 120//34 122//35 161//35 160//34 
f 122//35 124//36 162//36 161//35 
f 124//36 126//37 163//37 162//36 
f 126//37 128//39 164//48 163//37 
f 132//40 131//41 165//41 166//49 
f 131//41 134//42 167//42 165//41 
f 134//42 136//43 168//43 167//42 
f 136//43 138//45 169//45 168//43 
f 138//45 140//46 170//46 169//45 
f 140//46 142//47 171//47 170//46 
f 142//47 88//29 144//29 171//47 
s 2
f 141//50 139//51 137//51 135//51 133//51 13//50 11//51 9//51 7//51 5//51 2//51 1//51 55//51 53//51 51//51 49//51 47//51 45//51 43//51 41//51 39//51 37//51 35//51 33//51 31//51 29//51 27//50 25//50 23//50 21//50 19//50 17//50 15//50 13//50 133//51 130//50 129//51 172//51 173//51 127//51 125//50 123//50 121//50 119//50 117//50 115//51 113//51 111//51 109//51 107//51 105//51 103//51 101//51 99//51 97//51 95//51 93//51 91//51 89//51 86//51 85//51 
f 171//52 144//52 143//52 145//52 146//52 147//52 148//52 149//52 150//52 151//52 152//52 153//52 154//52 155//52 156//52 157//52 158//52 159//53 160//52 161//53 162//53 163//52 164//52 174//52 175//52 166//52 165//52 167//52 63//52 64//52 65//52 66//52 67//52 68//52 69//52 70//52 71//52 72//52 73//52 74//52 75//52 76//52 77//52 78//52 79//52 80//52 81//52 82//52 83//52 84//52 58//52 57//52 59//53 60//53 61//53 62//53 63//52 167//52 168//52 169//53 170//52 
s 1
f 127//38 173//54 176//55 128//39 
f 128//39 176//55 174//56 164//48 
f 173//54 172//57 177//58 176//55 
f 172//57 129//40 132//40 177//58 
f 176//55 177//58 175//59 174//56 
f 177//58 132//40 166//49 175//59 
# 120 polygons

#
# object Donut003
#

v  1436.3627 373.8273 59.5011
v  1432.6226 363.3746 59.5011
v  1432.6226 363.3746 71.9199
v  1436.3627 373.8273 71.9199
v  1426.7551 354.1508 59.5011
v  1426.7551 354.1508 71.9199
v  1419.0598 346.4554 59.5011
v  1419.0598 346.4554 71.9198
v  1409.8359 340.5879 59.5011
v  1409.8359 340.5879 71.9198
v  1399.3832 336.8478 59.5011
v  1399.3832 336.8478 71.9198
v  1388.0010 335.5346 59.5011
v  1388.0010 335.5346 71.9198
v  1376.6188 336.8478 59.5011
v  1376.6188 336.8478 71.9198
v  1366.1660 340.5879 59.5011
v  1366.1660 340.5879 71.9198
v  1356.9423 346.4554 59.5011
v  1356.9423 346.4554 71.9198
v  1349.2468 354.1508 59.5011
v  1349.2468 354.1508 71.9199
v  1343.3793 363.3746 59.5011
v  1343.3793 363.3746 71.9199
v  1339.6393 373.8273 59.5011
v  1339.6393 373.8273 71.9199
v  1338.3259 385.2096 59.5011
v  1338.3259 385.2096 71.9199
v  1339.6392 396.5918 59.5011
v  1339.6392 396.5918 71.9199
v  1343.3794 407.0445 59.5011
v  1343.3794 407.0445 71.9199
v  1349.2468 416.2683 59.5011
v  1349.2468 416.2683 71.9199
v  1356.9421 423.9637 59.5011
v  1356.9421 423.9637 71.9199
v  1366.1660 429.8312 59.5011
v  1366.1660 429.8312 71.9199
v  1376.6188 433.5713 59.5011
v  1376.6188 433.5713 71.9199
v  1388.0010 434.8846 59.5011
v  1388.0010 434.8846 71.9199
v  1399.3832 433.5713 59.5011
v  1399.3832 433.5713 71.9199
v  1409.8359 429.8312 59.5011
v  1409.8359 429.8312 71.9199
v  1419.0598 423.9637 59.5011
v  1419.0598 423.9637 71.9199
v  1426.7551 416.2683 59.5011
v  1426.7551 416.2683 71.9199
v  1432.6227 407.0446 59.5011
v  1432.6227 407.0446 71.9199
v  1436.3627 396.5918 59.5011
v  1436.3627 396.5918 71.9199
v  1437.6760 385.2096 59.5011
v  1437.6760 385.2096 71.9199
v  1432.6226 363.3746 84.3386
v  1436.3627 373.8273 84.3386
v  1426.7551 354.1508 84.3386
v  1419.0598 346.4554 84.3386
v  1409.8359 340.5879 84.3386
v  1399.3832 336.8478 84.3386
v  1388.0010 335.5346 84.3386
v  1376.6188 336.8478 84.3386
v  1366.1660 340.5879 84.3386
v  1356.9423 346.4554 84.3386
v  1349.2468 354.1508 84.3386
v  1343.3793 363.3746 84.3386
v  1339.6393 373.8273 84.3386
v  1338.3259 385.2096 84.3386
v  1339.6392 396.5918 84.3386
v  1343.3794 407.0445 84.3386
v  1349.2468 416.2683 84.3386
v  1356.9421 423.9637 84.3386
v  1366.1660 429.8312 84.3386
v  1376.6188 433.5713 84.3386
v  1388.0010 434.8846 84.3386
v  1399.3832 433.5713 84.3386
v  1409.8359 429.8312 84.3386
v  1419.0598 423.9637 84.3386
v  1426.7551 416.2683 84.3386
v  1432.6227 407.0445 84.3386
v  1436.3627 396.5918 84.3386
v  1437.6760 385.2096 84.3386
v  1481.1416 385.2096 59.5011
v  1478.6792 406.5512 59.5011
v  1478.6792 406.5512 71.9199
v  1481.1416 385.2096 71.9199
v  1471.6665 426.1501 59.5011
v  1471.6665 426.1501 71.9199
v  1460.6650 443.4448 59.5011
v  1460.6650 443.4448 71.9199
v  1446.2362 457.8736 59.5011
v  1446.2362 457.8736 71.9199
v  1428.9415 468.8751 59.5011
v  1428.9415 468.8751 71.9199
v  1409.3427 475.8878 59.5011
v  1409.3427 475.8878 71.9199
v  1388.0010 478.3502 59.5011
v  1388.0010 478.3502 71.9199
v  1366.6593 475.8878 59.5011
v  1366.6593 475.8878 71.9199
v  1347.0604 468.8752 59.5011
v  1347.0604 468.8752 71.9199
v  1329.7657 457.8736 59.5011
v  1329.7657 457.8736 71.9199
v  1315.3369 443.4448 59.5011
v  1315.3369 443.4448 71.9199
v  1304.3354 426.1501 59.5011
v  1304.3354 426.1501 71.9199
v  1297.3228 406.5512 59.5011
v  1297.3228 406.5512 71.9199
v  1294.8604 385.2096 59.5011
v  1294.8604 385.2096 71.9199
v  1298.3905 361.2814 59.5011
v  1298.3905 361.2814 71.9199
v  1307.8947 335.0120 59.5011
v  1307.8947 335.0120 71.9198
v  1321.7435 310.3731 59.5011
v  1321.7435 310.3731 71.9198
v  1338.3079 290.3193 59.5011
v  1338.3079 290.3193 71.9198
v  1355.9584 274.6300 59.5011
v  1355.9584 274.6300 71.9198
v  1373.0659 261.3929 59.5011
v  1373.0659 261.3929 71.9198
v  1385.9633 255.5465 59.5011
v  1385.9633 255.5465 71.9198
v  1390.0387 255.5465 59.5011
v  1402.9360 261.3929 59.5011
v  1402.9360 261.3929 71.9198
v  1390.0387 255.5465 71.9198
v  1420.0436 274.6300 59.5011
v  1420.0436 274.6300 71.9198
v  1437.6941 290.3193 59.5011
v  1437.6941 290.3193 71.9198
v  1454.2584 310.3731 59.5011
v  1454.2584 310.3731 71.9198
v  1468.1073 335.0120 59.5011
v  1468.1073 335.0120 71.9198
v  1477.6115 361.2814 59.5011
v  1477.6115 361.2814 71.9199
v  1478.6792 406.5512 84.3386
v  1481.1416 385.2096 84.3386
v  1471.6665 426.1501 84.3386
v  1460.6650 443.4448 84.3386
v  1446.2362 457.8736 84.3386
v  1428.9415 468.8751 84.3386
v  1409.3427 475.8878 84.3386
v  1388.0010 478.3502 84.3386
v  1366.6593 475.8878 84.3386
v  1347.0604 468.8751 84.3386
v  1329.7657 457.8736 84.3386
v  1315.3369 443.4448 84.3386
v  1304.3354 426.1501 84.3386
v  1297.3228 406.5512 84.3386
v  1294.8604 385.2096 84.3386
v  1298.3905 361.2814 84.3386
v  1307.8947 335.0120 84.3386
v  1321.7435 310.3730 84.3386
v  1338.3079 290.3193 84.3386
v  1355.9584 274.6300 84.3386
v  1373.0659 261.3929 84.3386
v  1385.9633 255.5465 84.3386
v  1402.9360 261.3929 84.3386
v  1390.0387 255.5465 84.3386
v  1420.0436 274.6300 84.3386
v  1437.6941 290.3193 84.3386
v  1454.2584 310.3731 84.3386
v  1468.1073 335.0120 84.3386
v  1477.6115 361.2814 84.3386
v  1388.6802 255.2404 59.5011
v  1387.3218 255.2404 59.5011
v  1387.3218 255.5477 84.3386
v  1388.6802 255.5477 84.3386
v  1387.3218 255.2404 71.9198
v  1388.6802 255.2404 71.9198
# 177 vertices

vn -0.9738 0.2272 0.0000
vn -0.8982 0.4395 0.0000
vn -0.7801 0.6257 0.0000
vn -0.6257 0.7801 0.0000
vn -0.4395 0.8982 0.0000
vn -0.2272 0.9738 0.0000
vn 0.0000 1.0000 0.0000
vn 0.2272 0.9738 0.0000
vn 0.4395 0.8982 0.0000
vn 0.6257 0.7801 0.0000
vn 0.7801 0.6257 0.0000
vn 0.8982 0.4395 0.0000
vn 0.9738 0.2272 0.0000
vn 1.0000 0.0000 0.0000
vn 0.9738 -0.2272 -0.0000
vn 0.8982 -0.4395 -0.0000
vn 0.7801 -0.6257 -0.0000
vn 0.6257 -0.7801 -0.0000
vn 0.4395 -0.8982 -0.0000
vn 0.2272 -0.9738 -0.0000
vn -0.0000 -1.0000 -0.0000
vn -0.2272 -0.9738 -0.0000
vn -0.4395 -0.8982 -0.0000
vn -0.6257 -0.7801 -0.0000
vn -0.7801 -0.6257 -0.0000
vn -0.8982 -0.4395 -0.0000
vn -0.9738 -0.2272 -0.0000
vn -1.0000 0.0000 0.0000
vn 0.9999 -0.0158 -0.0000
vn -0.0000 1.0000 0.0000
vn -0.9999 -0.0158 -0.0000
vn -0.9697 -0.2443 -0.0000
vn -0.9091 -0.4165 -0.0000
vn -0.8246 -0.5657 -0.0000
vn -0.7198 -0.6942 -0.0000
vn -0.6385 -0.7696 -0.0000
vn -0.5159 -0.8566 -0.0000
vn -0.3180 -0.9481 -0.0000
vn -0.3144 -0.9493 0.0057
vn 0.3180 -0.9481 -0.0000
vn 0.5159 -0.8566 -0.0000
vn 0.6385 -0.7696 -0.0000
vn 0.7198 -0.6942 -0.0000
vn 0.8246 -0.5657 0.0000
vn 0.8246 -0.5657 -0.0000
vn 0.9091 -0.4165 -0.0000
vn 0.9697 -0.2443 -0.0000
vn -0.2108 -0.9775 -0.0000
vn 0.2184 -0.9758 0.0118
vn -0.0000 0.0000 -1.0000
vn 0.0000 0.0000 -1.0000
vn 0.0000 -0.0000 1.0000
vn -0.0000 -0.0000 1.0000
vn -0.1106 -0.9939 -0.0000
vn -0.1105 -0.9938 0.0123
vn -0.0074 -0.9999 0.0132
vn 0.1106 -0.9939 -0.0000
vn 0.1067 -0.9943 0.0067
vn -0.0004 -0.9997 0.0247
# 59 vertex normals

g Donut003
usemtl wire_028089177
s 1
f 178//60 179//61 180//61 181//60 
f 179//61 182//62 183//62 180//61 
f 182//62 184//63 185//63 183//62 
f 184//63 186//64 187//64 185//63 
f 186//64 188//65 189//65 187//64 
f 188//65 190//66 191//66 189//65 
f 190//66 192//67 193//67 191//66 
f 192//67 194//68 195//68 193//67 
f 194//68 196//69 197//69 195//68 
f 196//69 198//70 199//70 197//69 
f 198//70 200//71 201//71 199//70 
f 200//71 202//72 203//72 201//71 
f 202//72 204//73 205//73 203//72 
f 204//73 206//74 207//74 205//73 
f 206//74 208//75 209//75 207//74 
f 208//75 210//76 211//76 209//75 
f 210//76 212//77 213//77 211//76 
f 212//77 214//78 215//78 213//77 
f 214//78 216//79 217//79 215//78 
f 216//79 218//80 219//80 217//79 
f 218//80 220//81 221//81 219//80 
f 220//81 222//82 223//82 221//81 
f 222//82 224//83 225//83 223//82 
f 224//83 226//84 227//84 225//83 
f 226//84 228//85 229//85 227//84 
f 228//85 230//86 231//86 229//85 
f 230//86 232//87 233//87 231//86 
f 232//87 178//60 181//60 233//87 
f 181//60 180//61 234//61 235//60 
f 180//61 183//62 236//62 234//61 
f 183//62 185//63 237//63 236//62 
f 185//63 187//64 238//64 237//63 
f 187//64 189//65 239//65 238//64 
f 189//65 191//66 240//66 239//65 
f 191//66 193//67 241//67 240//66 
f 193//67 195//68 242//68 241//67 
f 195//68 197//69 243//69 242//68 
f 197//69 199//70 244//70 243//69 
f 199//70 201//71 245//71 244//70 
f 201//71 203//72 246//72 245//71 
f 203//72 205//73 247//73 246//72 
f 205//73 207//74 248//74 247//73 
f 207//74 209//75 249//75 248//74 
f 209//75 211//76 250//76 249//75 
f 211//76 213//77 251//77 250//76 
f 213//77 215//78 252//78 251//77 
f 215//78 217//79 253//79 252//78 
f 217//79 219//80 254//80 253//79 
f 219//80 221//81 255//81 254//80 
f 221//81 223//82 256//82 255//81 
f 223//82 225//83 257//83 256//82 
f 225//83 227//84 258//84 257//83 
f 227//84 229//85 259//85 258//84 
f 229//85 231//86 260//86 259//85 
f 231//86 233//87 261//87 260//86 
f 233//87 181//60 235//60 261//87 
f 262//88 263//72 264//72 265//88 
f 263//72 266//71 267//71 264//72 
f 266//71 268//70 269//70 267//71 
f 268//70 270//69 271//69 269//70 
f 270//69 272//68 273//68 271//69 
f 272//68 274//67 275//67 273//68 
f 274//67 276//89 277//89 275//67 
f 276//89 278//65 279//65 277//89 
f 278//65 280//64 281//64 279//65 
f 280//64 282//63 283//63 281//64 
f 282//63 284//62 285//62 283//63 
f 284//62 286//61 287//61 285//62 
f 286//61 288//60 289//60 287//61 
f 288//60 290//90 291//90 289//60 
f 290//90 292//91 293//91 291//90 
f 292//91 294//92 295//92 293//91 
f 294//92 296//93 297//93 295//92 
f 296//93 298//94 299//94 297//93 
f 298//94 300//95 301//95 299//94 
f 300//95 302//96 303//96 301//95 
f 302//96 304//97 305//98 303//96 
f 306//99 307//100 308//100 309//99 
f 307//100 310//101 311//101 308//100 
f 310//101 312//102 313//102 311//101 
f 312//102 314//103 315//104 313//102 
f 314//103 316//105 317//105 315//104 
f 316//105 318//106 319//106 317//105 
f 318//106 262//88 265//88 319//106 
f 265//88 264//72 320//72 321//88 
f 264//72 267//71 322//71 320//72 
f 267//71 269//70 323//70 322//71 
f 269//70 271//69 324//69 323//70 
f 271//69 273//68 325//68 324//69 
f 273//68 275//67 326//67 325//68 
f 275//67 277//89 327//89 326//67 
f 277//89 279//65 328//65 327//89 
f 279//65 281//64 329//64 328//65 
f 281//64 283//63 330//63 329//64 
f 283//63 285//62 331//62 330//63 
f 285//62 287//61 332//61 331//62 
f 287//61 289//60 333//60 332//61 
f 289//60 291//90 334//90 333//60 
f 291//90 293//91 335//91 334//90 
f 293//91 295//92 336//92 335//91 
f 295//92 297//93 337//93 336//92 
f 297//93 299//94 338//94 337//93 
f 299//94 301//95 339//95 338//94 
f 301//95 303//96 340//96 339//95 
f 303//96 305//98 341//107 340//96 
f 309//99 308//100 342//100 343//108 
f 308//100 311//101 344//101 342//100 
f 311//101 313//102 345//102 344//101 
f 313//102 315//104 346//104 345//102 
f 315//104 317//105 347//105 346//104 
f 317//105 319//106 348//106 347//105 
f 319//106 265//88 321//88 348//106 
s 2
f 318//109 316//110 314//110 312//110 310//110 190//109 188//110 186//110 184//110 182//110 179//110 178//110 232//110 230//110 228//110 226//110 224//110 222//110 220//110 218//110 216//110 214//110 212//110 210//110 208//110 206//110 204//109 202//109 200//109 198//109 196//109 194//109 192//109 190//109 310//110 307//109 306//110 349//110 350//110 304//110 302//109 300//109 298//109 296//109 294//109 292//110 290//110 288//110 286//110 284//110 282//110 280//110 278//110 276//110 274//110 272//110 270//110 268//110 266//110 263//110 262//110 
f 348//111 321//111 320//111 322//111 323//111 324//111 325//111 326//111 327//111 328//111 329//111 330//111 331//111 332//111 333//111 334//111 335//111 336//112 337//111 338//112 339//112 340//111 341//111 351//111 352//111 343//111 342//111 344//111 240//111 241//111 242//111 243//111 244//111 245//111 246//111 247//111 248//111 249//111 250//111 251//111 252//111 253//111 254//111 255//111 256//111 257//111 258//111 259//111 260//111 261//111 235//111 234//111 236//112 237//112 238//112 239//112 240//111 344//111 345//111 346//112 347//111 
s 1
f 304//97 350//113 353//114 305//98 
f 305//98 353//114 351//115 341//107 
f 350//113 349//116 354//117 353//114 
f 349//116 306//99 309//99 354//117 
f 353//114 354//117 352//118 351//115 
f 354//117 309//99 343//108 352//118 
# 120 polygons

