<?xml version="1.0" encoding="utf-8"?>
<!-- Generator: Adobe Illustrator 23.0.2, SVG Export Plug-In . SVG Version: 6.00 Build 0)  -->
<svg version="1.1" id="图层_1" xmlns="http://www.w3.org/2000/svg" xmlns:xlink="http://www.w3.org/1999/xlink" x="0px" y="0px"
	 viewBox="0 0 1024 1024" style="enable-background:new 0 0 1024 1024;" xml:space="preserve">
<style type="text/css">
	.st0{fill:#DEECF9;}
	.st1{fill:#FFFFFF;}
	.st2{fill:#A2D77B;}
	.st3{fill:#FBF88F;}
	.st4{fill:#FECBA4;}
	.st5{fill:none;stroke:#E8333B;stroke-width:3;stroke-miterlimit:10;}
	.st6{fill:#ABA592;}
	.st7{fill:#DADADA;}
</style>
<path class="st0" d="M913.2,681l-0.7-273.9c0-4.9,4-8.9,8.9-8.9l0,0c4.9,0,8.9-4,8.9-8.9v-51.3c0-4.8-3.8-8.7-8.6-8.9l-8-0.2
	c-4.8-0.1-8.6-4.1-8.6-8.9v-67.2c0-4.9-4-8.9-8.9-8.9H698.7v-93.8h-57.3v93.8h-32.9v-93.8h-46.8v93.8H224.4c-4.9,0-8.9,4-8.9,8.9
	v468.9c0,4.9,4,8.9,8.9,8.9h703.1c4.9,0,8.9-4,8.9-8.9v-22.9c0-4.8-3.8-8.7-8.6-8.9l-6-0.2C917,689.7,913.2,685.8,913.2,681z"/>
<rect x="625.8" y="404.3" class="st1" width="37.1" height="50.1"/>
<rect x="880" y="612.3" class="st1" width="24.9" height="61.6"/>
<rect x="548.8" y="404.3" class="st1" width="50.1" height="50.1"/>
<rect x="548.8" y="466.8" class="st1" width="49.4" height="62.4"/>
<rect x="672.3" y="465.6" class="st1" width="49.4" height="62.4"/>
<rect x="731.3" y="465.6" class="st1" width="49.4" height="62.4"/>
<rect x="791.5" y="465.6" class="st1" width="49.4" height="62.4"/>
<rect x="672.3" y="404.6" class="st1" width="49.4" height="49.4"/>
<rect x="731.3" y="404.6" class="st1" width="49.4" height="49.4"/>
<rect x="791.5" y="404.6" class="st1" width="49.4" height="49.4"/>
<rect x="868.5" y="404.6" class="st1" width="36.5" height="49.4"/>
<rect x="548.8" y="550.7" class="st1" width="49.4" height="49.4"/>
<rect x="640.4" y="499.2" class="st1" width="22.5" height="28.4"/>
<rect x="640.4" y="550.7" class="st1" width="22.5" height="49.4"/>
<rect x="671.2" y="550.7" class="st1" width="49.4" height="49.4"/>
<rect x="731.3" y="550.7" class="st1" width="49.4" height="49.4"/>
<rect x="791.5" y="550.7" class="st1" width="49.4" height="49.4"/>
<rect x="671.2" y="612.3" class="st1" width="49.4" height="61.6"/>
<rect x="731.3" y="612.3" class="st1" width="49.4" height="61.6"/>
<rect x="791.5" y="612.3" class="st1" width="49.4" height="61.6"/>
<rect x="638.2" y="612.3" class="st1" width="24.7" height="61.6"/>
<rect x="548.8" y="612.3" class="st1" width="49.4" height="61.6"/>
<rect x="488.4" y="550.7" class="st1" width="49.4" height="49.4"/>
<rect x="488.4" y="466.8" class="st1" width="49.4" height="60.8"/>
<rect x="488.4" y="404.6" class="st1" width="49.4" height="49.4"/>
<rect x="429.1" y="404.6" class="st1" width="49.4" height="49.4"/>
<rect x="429.1" y="466.8" class="st1" width="49.4" height="60.8"/>
<rect x="387.1" y="404.6" class="st1" width="32.1" height="49.4"/>
<rect x="391.2" y="356.7" class="st1" width="77.7" height="24.7"/>
<rect x="394.6" y="466.8" class="st1" width="24.7" height="60.8"/>
<rect x="429.1" y="550.7" class="st1" width="49.4" height="49.4"/>
<rect x="430.6" y="612.3" class="st1" width="49.4" height="61.6"/>
<rect x="488.4" y="612.3" class="st1" width="49.4" height="61.6"/>
<rect x="394.6" y="550.7" class="st1" width="24.7" height="49.4"/>
<rect x="394.6" y="612.3" class="st1" width="24.7" height="61.6"/>
<rect x="333.7" y="550.7" class="st1" width="20.7" height="49.4"/>
<rect x="333.7" y="611.3" class="st1" width="25.3" height="62.6"/>
<rect x="362.6" y="569.2" class="st2" width="28.5" height="104.7"/>
<rect x="602.4" y="569.2" class="st2" width="31.7" height="104.7"/>
<rect x="844.3" y="569.2" class="st2" width="31.7" height="104.7"/>
<rect x="333.7" y="404.6" class="st1" width="37" height="49.4"/>
<rect x="323.2" y="351.4" class="st1" width="53.9" height="30"/>
<rect x="225.3" y="356.4" class="st1" width="74.6" height="25"/>
<rect x="323.5" y="250.3" class="st3" width="51" height="37.8"/>
<rect x="414.7" y="250.3" class="st3" width="51" height="37.8"/>
<rect x="782" y="250.3" class="st3" width="51" height="37.8"/>
<rect x="273.1" y="612.3" class="st1" width="50.1" height="61.6"/>
<rect x="273.1" y="404.6" class="st1" width="50.1" height="50.1"/>
<rect x="273.1" y="466.8" class="st1" width="50.1" height="60.8"/>
<rect x="273.1" y="550.4" class="st1" width="50.1" height="50.1"/>
<rect x="333.7" y="466.8" class="st1" width="41.6" height="32.5"/>
<rect x="333.7" y="499.2" class="st1" width="20.7" height="28.4"/>
<rect x="619.3" y="356.4" class="st1" width="50.1" height="25"/>
<rect x="541.9" y="356.4" class="st1" width="61.8" height="25"/>
<rect x="389.9" y="697.6" class="st1" width="50.2" height="25"/>
<rect x="451.5" y="697.6" class="st1" width="74.3" height="25"/>
<rect x="537.8" y="697.6" class="st1" width="60.4" height="25"/>
<rect x="623.9" y="697.6" class="st1" width="60.4" height="25"/>
<rect x="695.9" y="697.6" class="st1" width="74" height="25"/>
<rect x="782" y="696.7" class="st1" width="62.8" height="25"/>
<rect x="864.1" y="697.6" class="st1" width="62.8" height="25"/>
<rect x="318.7" y="697.6" class="st1" width="50.2" height="25"/>
<rect x="233.1" y="697.6" class="st1" width="74" height="25"/>
<rect x="681.1" y="356.4" class="st1" width="50.2" height="25"/>
<rect x="742.7" y="356.4" class="st1" width="50.2" height="25"/>
<rect x="803.9" y="356.4" class="st1" width="50.2" height="25"/>
<rect x="862" y="356.4" class="st1" width="57.6" height="25"/>
<rect x="621.3" y="466.8" class="st4" width="41.7" height="32.5"/>
<polygon class="st1" points="871.4,466.8 904.9,466.8 904.9,528 888.2,527.6 888.2,503.9 871.4,503.6 "/>
<polygon class="st1" points="888.2,550.7 904.9,550.7 904.9,600.1 880,600.1 880,572.1 888.2,572.1 "/>
<g>
	<path class="st5" d="M561.8,244.1H223.5c-4.4,0-8,3.6-8,8v470.7c0,4.4,3.6,8,8,8h704.9c4.4,0,8-3.6,8-8V698c0-4.3-3.4-7.8-7.7-8
		l-7.8-0.3c-4.3-0.1-7.7-3.6-7.7-7.9l-0.7-275.7c0-4.4,3.6-8,8-8h1.8c4.4,0,8-3.6,8-8v-53c0-4.3-3.4-7.8-7.7-8l-9.8-0.3
		c-4.3-0.1-7.7-3.7-7.7-8v-69c0-4.4-3.6-8-8-8H698.2"/>
	<line class="st5" x1="608.5" y1="244.1" x2="641.3" y2="244.1"/>
</g>
<g>
	<rect x="415" y="295.4" class="st6" width="146.9" height="51"/>
	<polygon class="st1" points="555.8,309 474.6,307.7 444.1,327 444.1,295.9 442.1,295.9 442.1,328.2 442.3,328.2 423.8,339.9 
		427.3,341.5 474.3,311.2 506.6,312 506.6,312 506.6,343.4 507.9,343.4 507.9,312 555.8,313.2 	"/>
</g>
<g>
	<rect x="225.3" y="295.4" class="st6" width="74.6" height="51"/>
	<polygon class="st1" points="298.1,310.7 257.5,309.6 242.3,326.4 242.3,299.4 241.3,299.4 241.3,327.3 241.4,327.3 232.1,337.5 
		233.9,338.9 257.4,312.7 273.5,313.3 273.5,313.3 273.5,340.5 274.2,340.5 274.2,313.4 298.1,314.4 	"/>
</g>
<g>
	<rect x="690.5" y="295.4" class="st6" width="163.6" height="51"/>
	<polygon class="st1" points="848,309 766.9,307.7 736.3,327 736.3,295.9 734.4,295.9 734.4,328.2 734.5,328.2 716,339.9 
		719.5,341.5 766.6,311.2 798.8,312 798.8,312 798.8,343.4 800.1,343.4 800.1,312 848,313.2 	"/>
</g>
<rect x="348" y="250.3" class="st1" width="1.9" height="28.6"/>
<rect x="440.2" y="250.3" class="st1" width="1.9" height="28.6"/>
<rect x="806.5" y="250.3" class="st1" width="1.9" height="28.6"/>
<polyline class="st7" points="572.6,404.3 572.6,454.4 574.3,454.4 574.3,404.3 "/>
<polyline class="st7" points="697.6,491.5 697.6,528 698.3,528 698.3,491.5 "/>
<polyline class="st7" points="696.3,404.3 696.3,454.4 697.9,454.4 697.9,404.3 "/>
<polyline class="st7" points="512.3,404.3 512.3,454.4 513.9,454.4 513.9,404.3 "/>
<polyline class="st7" points="672.3,491.5 722.1,491.5 722.1,489.8 672.3,489.8 "/>
<polyline class="st7" points="574,492.6 574,529.2 574.6,529.2 574.6,492.6 "/>
<polyline class="st7" points="548.8,492.6 598.3,492.6 598.3,491 548.8,491 "/>
<polyline class="st7" points="513.5,491 513.5,527.6 514.2,527.6 514.2,491 "/>
<polyline class="st7" points="488.4,491 537.8,491 537.8,489.4 488.4,489.4 "/>
<polyline class="st7" points="454.2,491 454.2,527.6 454.9,527.6 454.9,491 "/>
<polyline class="st7" points="453.4,550.9 453.4,600.1 454.1,600.1 454.1,550.9 "/>
<polyline class="st7" points="512.8,550.9 512.8,600.1 513.4,600.1 513.4,550.9 "/>
<polyline class="st7" points="574.3,550.8 574.3,600 574.9,600 574.9,550.8 "/>
<polyline class="st7" points="429.1,491 478.5,491 478.5,489.4 429.1,489.4 "/>
<polyline class="st7" points="455.8,612.3 455.8,673.9 456.4,673.9 456.4,612.3 "/>
<polyline class="st7" points="430.6,637.3 480.1,637.3 480.1,635.7 430.6,635.7 "/>
<polyline class="st7" points="298.2,612.3 298.2,673.9 298.9,673.9 298.9,612.3 "/>
<polyline class="st7" points="273.1,637.3 323.2,637.3 323.2,635.7 273.1,635.7 "/>
<polyline class="st7" points="513.5,612.3 513.5,673.9 514.2,673.9 514.2,612.3 "/>
<polyline class="st7" points="488.4,637.3 537.8,637.3 537.8,635.7 488.4,635.7 "/>
<polyline class="st7" points="574,612.3 574,673.9 574.6,673.9 574.6,612.3 "/>
<polyline class="st7" points="548.8,637.3 598.3,637.3 598.3,635.7 548.8,635.7 "/>
<polyline class="st7" points="696.4,612.3 696.4,673.9 697,673.9 697,612.3 "/>
<polyline class="st7" points="671.2,637.3 720.7,637.3 720.7,635.7 671.2,635.7 "/>
<polyline class="st7" points="756.5,612.3 756.5,673.9 757.1,673.9 757.1,612.3 "/>
<polyline class="st7" points="731.3,637.3 780.7,637.3 780.7,635.7 731.3,635.7 "/>
<polyline class="st7" points="816.7,612.3 816.7,673.9 817.3,673.9 817.3,612.3 "/>
<polyline class="st7" points="791.5,637.3 841,637.3 841,635.7 791.5,635.7 "/>
<polyline class="st7" points="756.5,491.5 756.5,528 757.1,528 757.1,491.5 "/>
<polyline class="st7" points="731.1,491.5 780.9,491.5 780.9,489.8 731.1,489.8 "/>
<polyline class="st7" points="816.7,491.5 816.7,528 817.3,528 817.3,491.5 "/>
<polyline class="st7" points="791.4,491.5 841.1,491.5 841.1,489.8 791.4,489.8 "/>
<polyline class="st7" points="394.6,636.8 419.3,636.8 419.3,636.2 394.6,636.2 "/>
<polyline class="st7" points="333.7,637.6 359,637.6 359,637 333.7,637 "/>
<polyline class="st7" points="259.9,710.5 280.8,710.5 280.8,709.8 259.9,709.8 "/>
<polyline class="st7" points="638.2,636.8 662.9,636.8 662.9,636.2 638.2,636.2 "/>
<polyline class="st7" points="880.1,637.1 904.8,637.1 904.8,636.5 880.1,636.5 "/>
<polyline class="st7" points="343.7,697.5 343.7,722.8 344.3,722.8 344.3,697.5 "/>
<polyline class="st7" points="256.8,697.6 256.8,722.7 258.4,722.7 258.4,697.6 "/>
<polyline class="st7" points="282.6,697.6 282.6,722.7 284.3,722.7 284.3,697.6 "/>
<polyline class="st7" points="269.8,710.5 269.8,716.6 270.5,716.6 270.5,710.5 "/>
<polyline class="st7" points="479.2,710.5 500,710.5 500,709.8 479.2,709.8 "/>
<polyline class="st7" points="476,697.6 476,722.7 477.7,722.7 477.7,697.6 "/>
<polyline class="st7" points="501.9,697.6 501.9,722.7 503.5,722.7 503.5,697.6 "/>
<polyline class="st7" points="489,710.5 489,716.6 489.7,716.6 489.7,710.5 "/>
<polyline class="st7" points="558.5,710.5 598.3,710.5 598.3,709.8 558.5,709.8 "/>
<polyline class="st7" points="554.3,697.6 554.3,722.7 555.9,722.7 555.9,697.6 "/>
<polyline class="st7" points="567.3,710.5 567.3,720 567.9,720 567.9,710.5 "/>
<polyline class="st7" points="721.6,710.1 745.8,710.1 745.8,709.5 721.6,709.5 "/>
<polyline class="st7" points="719.9,697.6 719.9,722.4 721.6,722.4 721.6,697.6 "/>
<polyline class="st7" points="745.8,697.6 745.8,722.4 747.4,722.4 747.4,697.6 "/>
</svg>
