<?xml version="1.0" encoding="utf-8"?>
<!-- Generator: Adobe Illustrator 23.0.2, SVG Export Plug-In . SVG Version: 6.00 Build 0)  -->
<svg version="1.1" id="图层_1" xmlns="http://www.w3.org/2000/svg" xmlns:xlink="http://www.w3.org/1999/xlink" x="0px" y="0px"
	 viewBox="0 0 1024 1024" style="enable-background:new 0 0 1024 1024;" xml:space="preserve">
<style type="text/css">
	.st0{fill:#DEECF9;}
	.st1{fill:#FFFFFF;}
	.st2{fill:#A2D77B;}
	.st3{fill:#FBF88F;}
	.st4{fill:#FECBA4;}
	.st5{fill:none;stroke:#E8333B;stroke-width:3;stroke-miterlimit:10;}
	.st6{fill:#ABA592;}
	.st7{fill:#DADADA;}
	.st8{fill:#191211;}
</style>
<g id="zhanhui">
	<path class="st0" d="M913.2,693.5l-0.7-273.9c0-4.9,4-8.9,8.9-8.9l0,0c4.9,0,8.9-4,8.9-8.9v-51.3c0-4.8-3.8-8.7-8.6-8.9l-8-0.2
		c-4.8-0.1-8.6-4.1-8.6-8.9v-67.2c0-4.9-4-8.9-8.9-8.9H698.6v-93.8h-57.3v93.8h-32.9v-93.8h-46.8v93.8H224.4c-4.9,0-8.9,4-8.9,8.9
		v468.9c0,4.9,4,8.9,8.9,8.9h703.1c4.9,0,8.9-4,8.9-8.9v-22.9c0-4.8-3.8-8.7-8.6-8.9l-6-0.2C917,702.2,913.2,698.3,913.2,693.5z"/>
	<rect x="625.8" y="416.8" class="st1" width="37.1" height="50.1"/>
	<rect x="880" y="624.8" class="st1" width="24.9" height="61.6"/>
	<rect x="548.8" y="416.8" class="st1" width="50.1" height="50.1"/>
	<rect x="548.8" y="479.3" class="st1" width="49.4" height="62.4"/>
	<rect x="672.3" y="478.1" class="st1" width="49.4" height="62.4"/>
	<rect x="731.3" y="478.1" class="st1" width="49.4" height="62.4"/>
	<rect x="791.5" y="478.1" class="st1" width="49.4" height="62.4"/>
	<rect x="672.3" y="417.1" class="st1" width="49.4" height="49.4"/>
	<rect x="731.3" y="417.1" class="st1" width="49.4" height="49.4"/>
	<rect x="791.5" y="417.1" class="st1" width="49.4" height="49.4"/>
	<rect x="868.4" y="417.1" class="st1" width="36.5" height="49.4"/>
	<rect x="548.8" y="563.2" class="st1" width="49.4" height="49.4"/>
	<rect x="640.4" y="511.7" class="st1" width="22.5" height="28.4"/>
	<rect x="640.4" y="563.2" class="st1" width="22.5" height="49.4"/>
	<rect x="671.2" y="563.2" class="st1" width="49.4" height="49.4"/>
	<rect x="731.3" y="563.2" class="st1" width="49.4" height="49.4"/>
	<rect x="791.5" y="563.2" class="st1" width="49.4" height="49.4"/>
	<rect x="671.2" y="624.8" class="st1" width="49.4" height="61.6"/>
	<rect x="731.3" y="624.8" class="st1" width="49.4" height="61.6"/>
	<rect x="791.5" y="624.8" class="st1" width="49.4" height="61.6"/>
	<rect x="638.2" y="624.8" class="st1" width="24.7" height="61.6"/>
	<rect x="548.8" y="624.8" class="st1" width="49.4" height="61.6"/>
	<rect x="488.3" y="563.2" class="st1" width="49.4" height="49.4"/>
	<rect x="488.3" y="479.3" class="st1" width="49.4" height="60.8"/>
	<rect x="488.3" y="417.1" class="st1" width="49.4" height="49.4"/>
	<rect x="429" y="417.1" class="st1" width="49.4" height="49.4"/>
	<rect x="429" y="479.3" class="st1" width="49.4" height="60.8"/>
	<rect x="387" y="417.1" class="st1" width="32.1" height="49.4"/>
	<rect x="391.2" y="369.2" class="st1" width="77.7" height="24.7"/>
	<rect x="394.6" y="479.3" class="st1" width="24.7" height="60.8"/>
	<rect x="429" y="563.2" class="st1" width="49.4" height="49.4"/>
	<rect x="430.6" y="624.8" class="st1" width="49.4" height="61.6"/>
	<rect x="488.3" y="624.8" class="st1" width="49.4" height="61.6"/>
	<rect x="394.6" y="563.2" class="st1" width="24.7" height="49.4"/>
	<rect x="394.6" y="624.8" class="st1" width="24.7" height="61.6"/>
	<rect x="333.6" y="563.2" class="st1" width="20.7" height="49.4"/>
	<rect x="333.6" y="623.8" class="st1" width="25.3" height="62.6"/>
	<rect x="362.6" y="581.7" class="st2" width="28.5" height="104.7"/>
	<rect x="602.4" y="581.7" class="st2" width="31.7" height="104.7"/>
	<rect x="844.3" y="581.7" class="st2" width="31.7" height="104.7"/>
	<rect x="333.6" y="417.1" class="st1" width="37" height="49.4"/>
	<rect x="323.1" y="363.9" class="st1" width="53.9" height="30"/>
	<rect x="225.3" y="368.9" class="st1" width="74.6" height="25"/>
	<rect x="323.5" y="262.8" class="st3" width="51" height="37.8"/>
	<rect x="414.6" y="262.8" class="st3" width="51" height="37.8"/>
	<rect x="782" y="262.8" class="st3" width="51" height="37.8"/>
	<rect x="273" y="624.8" class="st1" width="50.1" height="61.6"/>
	<rect x="273" y="417.1" class="st1" width="50.1" height="50.1"/>
	<rect x="273" y="479.3" class="st1" width="50.1" height="60.8"/>
	<rect x="273" y="562.9" class="st1" width="50.1" height="50.1"/>
	<rect x="333.6" y="479.3" class="st1" width="41.6" height="32.5"/>
	<rect x="333.6" y="511.7" class="st1" width="20.7" height="28.4"/>
	<rect x="619.3" y="368.9" class="st1" width="50.1" height="25"/>
	<rect x="541.9" y="368.9" class="st1" width="61.8" height="25"/>
	<rect x="389.9" y="710.1" class="st1" width="50.2" height="25"/>
	<rect x="451.4" y="710.1" class="st1" width="74.3" height="25"/>
	<rect x="537.8" y="710.1" class="st1" width="60.4" height="25"/>
	<rect x="623.9" y="710.1" class="st1" width="60.4" height="25"/>
	<rect x="695.9" y="710.1" class="st1" width="74" height="25"/>
	<rect x="782" y="709.2" class="st1" width="62.8" height="25"/>
	<rect x="864.1" y="710.1" class="st1" width="62.8" height="25"/>
	<rect x="318.7" y="710.1" class="st1" width="50.2" height="25"/>
	<rect x="233.1" y="710.1" class="st1" width="74" height="25"/>
	<rect x="681.1" y="368.9" class="st1" width="50.2" height="25"/>
	<rect x="742.6" y="368.9" class="st1" width="50.2" height="25"/>
	<rect x="803.9" y="368.9" class="st1" width="50.2" height="25"/>
	<rect x="861.9" y="368.9" class="st1" width="57.6" height="25"/>
	<rect x="621.2" y="479.3" class="st4" width="41.7" height="32.5"/>
	<polygon class="st1" points="871.4,479.3 904.9,479.3 904.9,540.6 888.2,540.1 888.2,516.4 871.4,516.1 	"/>
	<polygon class="st1" points="888.2,563.2 904.9,563.2 904.9,612.6 880,612.6 880,584.6 888.2,584.6 	"/>
	<g id="st5">
		<path class="st5" d="M561.8,256.6H223.4c-4.4,0-8,3.6-8,8v470.7c0,4.4,3.6,8,8,8h704.9c4.4,0,8-3.6,8-8v-24.7c0-4.3-3.4-7.8-7.7-8
			l-7.8-0.3c-4.3-0.1-7.7-3.6-7.7-7.9l-0.7-275.7c0-4.4,3.6-8,8-8h1.8c4.4,0,8-3.6,8-8v-53c0-4.3-3.4-7.8-7.7-8l-9.8-0.3
			c-4.3-0.1-7.7-3.7-7.7-8v-69c0-4.4-3.6-8-8-8H698.1"/>
		<line class="st5" x1="608.4" y1="256.6" x2="641.3" y2="256.6"/>
	</g>
	<g id="st1">
		<rect x="415" y="307.9" class="st6" width="146.9" height="51"/>
		<polygon class="st1" points="555.8,321.5 474.6,320.2 444,339.6 444,308.4 442.1,308.4 442.1,340.7 442.2,340.7 423.7,352.4 
			427.3,354 474.3,323.8 506.6,324.5 506.6,324.5 506.6,355.9 507.8,355.9 507.8,324.6 555.8,325.7 		"/>
	</g>
	<g id="st11">
		<rect x="225.3" y="307.9" class="st6" width="74.6" height="51"/>
		<polygon class="st1" points="298.1,323.2 257.5,322.1 242.2,338.9 242.2,311.9 241.3,311.9 241.3,339.9 241.3,339.9 232.1,350 
			233.8,351.4 257.4,325.2 273.5,325.9 273.5,325.9 273.5,353 274.1,353 274.1,325.9 298.1,326.9 		"/>
	</g>
	<g id="st12">
		<rect x="690.5" y="307.9" class="st6" width="163.6" height="51"/>
		<polygon class="st1" points="848,321.5 766.8,320.2 736.3,339.6 736.3,308.4 734.4,308.4 734.4,340.7 734.5,340.7 716,352.4 
			719.5,354 766.5,323.8 798.8,324.5 798.8,324.5 798.8,355.9 800.1,355.9 800.1,324.6 848,325.7 		"/>
	</g>
	<rect x="348" y="262.8" class="st1" width="1.9" height="28.6"/>
	<rect x="440.1" y="262.8" class="st1" width="1.9" height="28.6"/>
	<rect x="806.5" y="262.8" class="st1" width="1.9" height="28.6"/>
	<polyline class="st7" points="572.6,416.8 572.6,466.9 574.2,466.9 574.2,416.8 	"/>
	<polyline class="st7" points="697.6,504 697.6,540.6 698.2,540.6 698.2,504 	"/>
	<polyline class="st7" points="696.3,416.8 696.3,466.9 697.9,466.9 697.9,416.8 	"/>
	<polyline class="st7" points="512.2,416.8 512.2,466.9 513.9,466.9 513.9,416.8 	"/>
	<polyline class="st7" points="672.3,504 722,504 722,502.3 672.3,502.3 	"/>
	<polyline class="st7" points="573.9,505.1 573.9,541.7 574.6,541.7 574.6,505.1 	"/>
	<polyline class="st7" points="548.8,505.1 598.2,505.1 598.2,503.5 548.8,503.5 	"/>
	<polyline class="st7" points="513.5,503.5 513.5,540.1 514.1,540.1 514.1,503.5 	"/>
	<polyline class="st7" points="488.3,503.5 537.8,503.5 537.8,501.9 488.3,501.9 	"/>
	<polyline class="st7" points="454.2,503.5 454.2,540.1 454.8,540.1 454.8,503.5 	"/>
	<polyline class="st7" points="453.4,563.4 453.4,612.6 454.1,612.6 454.1,563.4 	"/>
	<polyline class="st7" points="512.7,563.4 512.7,612.6 513.4,612.6 513.4,563.4 	"/>
	<polyline class="st7" points="574.3,563.3 574.3,612.6 574.9,612.6 574.9,563.3 	"/>
	<polyline class="st7" points="429,503.5 478.5,503.5 478.5,501.9 429,501.9 	"/>
	<polyline class="st7" points="455.7,624.8 455.7,686.4 456.4,686.4 456.4,624.8 	"/>
	<polyline class="st7" points="430.6,649.8 480,649.8 480,648.2 430.6,648.2 	"/>
	<polyline class="st7" points="298.2,624.8 298.2,686.4 298.8,686.4 298.8,624.8 	"/>
	<polyline class="st7" points="273,649.8 323.1,649.8 323.1,648.2 273,648.2 	"/>
	<polyline class="st7" points="513.5,624.8 513.5,686.4 514.1,686.4 514.1,624.8 	"/>
	<polyline class="st7" points="488.3,649.8 537.8,649.8 537.8,648.2 488.3,648.2 	"/>
	<polyline class="st7" points="573.9,624.8 573.9,686.4 574.6,686.4 574.6,624.8 	"/>
	<polyline class="st7" points="548.8,649.8 598.2,649.8 598.2,648.2 548.8,648.2 	"/>
	<polyline class="st7" points="696.3,624.8 696.3,686.4 697,686.4 697,624.8 	"/>
	<polyline class="st7" points="671.2,649.8 720.6,649.8 720.6,648.2 671.2,648.2 	"/>
	<polyline class="st7" points="756.4,624.8 756.4,686.4 757.1,686.4 757.1,624.8 	"/>
	<polyline class="st7" points="731.3,649.8 780.7,649.8 780.7,648.2 731.3,648.2 	"/>
	<polyline class="st7" points="816.7,624.8 816.7,686.4 817.3,686.4 817.3,624.8 	"/>
	<polyline class="st7" points="791.5,649.8 840.9,649.8 840.9,648.2 791.5,648.2 	"/>
	<polyline class="st7" points="756.4,504 756.4,540.6 757.1,540.6 757.1,504 	"/>
	<polyline class="st7" points="731.1,504 780.9,504 780.9,502.3 731.1,502.3 	"/>
	<polyline class="st7" points="816.7,504 816.7,540.6 817.3,540.6 817.3,504 	"/>
	<polyline class="st7" points="791.3,504 841.1,504 841.1,502.3 791.3,502.3 	"/>
	<polyline class="st7" points="394.6,649.3 419.3,649.3 419.3,648.7 394.6,648.7 	"/>
	<polyline class="st7" points="333.6,650.2 358.9,650.2 358.9,649.5 333.6,649.5 	"/>
	<polyline class="st7" points="259.9,723 280.8,723 280.8,722.3 259.9,722.3 	"/>
	<polyline class="st7" points="638.2,649.3 662.9,649.3 662.9,648.7 638.2,648.7 	"/>
	<polyline class="st7" points="880.1,649.7 904.8,649.7 904.8,649 880.1,649 	"/>
	<polyline class="st7" points="343.6,710 343.6,735.3 344.3,735.3 344.3,710 	"/>
	<polyline class="st7" points="256.8,710.1 256.8,735.2 258.4,735.2 258.4,710.1 	"/>
	<polyline class="st7" points="282.6,710.1 282.6,735.2 284.3,735.2 284.3,710.1 	"/>
	<polyline class="st7" points="269.8,723 269.8,729.1 270.4,729.1 270.4,723 	"/>
	<polyline class="st7" points="479.1,723 500,723 500,722.3 479.1,722.3 	"/>
	<polyline class="st7" points="476,710.1 476,735.2 477.6,735.2 477.6,710.1 	"/>
	<polyline class="st7" points="501.8,710.1 501.8,735.2 503.5,735.2 503.5,710.1 	"/>
	<polyline class="st7" points="489,723 489,729.1 489.7,729.1 489.7,723 	"/>
	<polyline class="st7" points="558.4,723 598.2,723 598.2,722.3 558.4,722.3 	"/>
	<polyline class="st7" points="554.3,710.1 554.3,735.2 555.9,735.2 555.9,710.1 	"/>
	<polyline class="st7" points="567.3,723 567.3,732.5 567.9,732.5 567.9,723 	"/>
	<polyline class="st7" points="721.5,722.7 745.7,722.7 745.7,722 721.5,722 	"/>
	<polyline class="st7" points="719.9,710.1 719.9,734.9 721.5,734.9 721.5,710.1 	"/>
	<polyline class="st7" points="745.7,710.1 745.7,734.9 747.4,734.9 747.4,710.1 	"/>
	<g id="st8">
		<circle class="st8" cx="335.9" cy="274.2" r="1.7"/>
		<path class="st8" d="M332.8,282.5l0.5-4.6c0.1-0.7,0.7-1.3,1.4-1.3h1.9c0.7,0,1.3,0.5,1.4,1.2l0.7,4.6c0.1,0.8-0.5,1.5-1.3,1.5
			h-0.6l-0.1,6.1c0,0.5-0.5,1-1,1l0,0c-0.6,0-1-0.4-1-1l0-6.1l-0.6,0C333.3,283.9,332.7,283.3,332.8,282.5z"/>
	</g>
	<g id="st81">
		<circle class="st8" cx="360.5" cy="273.9" r="1.7"/>
		<path class="st8" d="M362.4,276.7h-3.6l-1.1,6c-0.1,0.4,0.2,0.8,0.6,0.8h0.9l-0.8,1.8c-0.1,0.3,0.1,0.7,0.4,0.7h1.2c0,0,0,0,0,0
			v4.3c0,0.3,0.3,0.6,0.6,0.6s0.6-0.3,0.6-0.6v-4.3c0,0,0,0,0,0h1.1c0.3,0,0.5-0.4,0.4-0.7l-0.7-1.8h0.8c0.4,0,0.7-0.4,0.6-0.8
			L362.4,276.7z"/>
	</g>
	<g id="st82">
		<circle class="st8" cx="427.9" cy="274.3" r="1.7"/>
		<path class="st8" d="M424.7,282.6l0.5-4.6c0.1-0.7,0.7-1.3,1.4-1.3h1.9c0.7,0,1.3,0.5,1.4,1.2l0.7,4.6c0.1,0.8-0.5,1.5-1.3,1.5
			h-0.6l-0.1,6.1c0,0.5-0.5,1-1,1h0c-0.6,0-1-0.4-1-1l0-6.1l-0.6,0C425.2,284.1,424.6,283.4,424.7,282.6z"/>
	</g>
	<g id="st83">
		<circle class="st8" cx="452.5" cy="274" r="1.7"/>
		<path class="st8" d="M454.4,276.8h-3.6l-1.1,6c-0.1,0.4,0.2,0.8,0.6,0.8h0.9l-0.8,1.8c-0.1,0.3,0.1,0.7,0.4,0.7h1.2c0,0,0,0,0,0
			v4.3c0,0.3,0.3,0.6,0.6,0.6c0.3,0,0.6-0.3,0.6-0.6V286c0,0,0,0,0,0h1.1c0.3,0,0.5-0.4,0.4-0.7l-0.7-1.8h0.8c0.4,0,0.7-0.4,0.6-0.8
			L454.4,276.8z"/>
	</g>
	<g id="st84">
		<circle class="st8" cx="795.2" cy="276.3" r="1.7"/>
		<path class="st8" d="M792.1,284.7l0.5-4.6c0.1-0.7,0.7-1.3,1.4-1.3h1.9c0.7,0,1.3,0.5,1.4,1.2l0.7,4.6c0.1,0.8-0.5,1.5-1.3,1.5
			h-0.6l-0.1,6.1c0,0.5-0.5,1-1,1l0,0c-0.6,0-1-0.4-1-1l0-6.1l-0.6,0C792.6,286.1,792,285.5,792.1,284.7z"/>
	</g>
	<g id="st85">
		<circle class="st8" cx="819.8" cy="276.1" r="1.7"/>
		<path class="st8" d="M821.8,278.9h-3.6l-1.1,6c-0.1,0.4,0.2,0.8,0.6,0.8h0.9l-0.8,1.8c-0.1,0.3,0.1,0.7,0.4,0.7h1.2c0,0,0,0,0,0
			v4.3c0,0.3,0.3,0.6,0.6,0.6c0.3,0,0.6-0.3,0.6-0.6v-4.3c0,0,0,0,0,0h1.1c0.3,0,0.5-0.4,0.4-0.7l-0.7-1.8h0.8
			c0.4,0,0.7-0.4,0.6-0.8L821.8,278.9z"/>
	</g>
	<g id="st86">
		<circle class="st8" cx="480.4" cy="337.9" r="1.6"/>
		<path class="st8" d="M487.9,347.6H486c-0.6,0-1.1,0.2-1.5,0.6l-2.2-1.9v-4.8c0-0.5-0.4-0.8-0.8-0.8h-1.7c-0.5,0-0.8,0.4-0.8,0.8
			v1.8l-3.7-3.3c-0.3-0.5-0.7-0.9-1.3-1.1l0,0l0,0c-0.2-0.1-0.5-0.1-0.8-0.1h-1.9c-1.3,0-2.3,1-2.3,2.3s1,2.3,2.3,2.3h1.9
			c0.5,0,1-0.2,1.3-0.4l9.6,8.2c0.2,0.4,0.6,0.7,1,0.9l0,0v0c0.3,0.1,0.6,0.2,0.9,0.2h1.9c1.3,0,2.3-1,2.3-2.3
			C490.2,348.6,489.1,347.6,487.9,347.6z"/>
	</g>
	<g id="st87">
		<circle class="st8" cx="770.6" cy="337.4" r="1.7"/>
		<path class="st8" d="M778.3,347.4h-1.9c-0.6,0-1.2,0.2-1.6,0.6l-2.3-2v-5c0-0.5-0.4-0.9-0.9-0.9h-1.8c-0.5,0-0.9,0.4-0.9,0.9v1.9
			l-3.9-3.4c-0.3-0.5-0.7-0.9-1.3-1.2l0,0l0,0c-0.2-0.1-0.5-0.1-0.8-0.1h-1.9c-1.3,0-2.4,1.1-2.4,2.4s1.1,2.4,2.4,2.4h1.9
			c0.5,0,1-0.2,1.4-0.5l10,8.5c0.3,0.4,0.6,0.7,1.1,0.9l0,0v0c0.3,0.1,0.6,0.2,0.9,0.2h1.9c1.3,0,2.4-1.1,2.4-2.4
			S779.6,347.4,778.3,347.4z"/>
	</g>
	<g id="st88">
		<circle class="st8" cx="263.2" cy="335.7" r="1.3"/>
		<path class="st8" d="M269.2,343.4h-1.5c-0.5,0-0.9,0.2-1.2,0.5l-1.8-1.6v-3.8c0-0.4-0.3-0.7-0.7-0.7h-1.4c-0.4,0-0.7,0.3-0.7,0.7
			v1.5l-3-2.6c-0.2-0.4-0.6-0.7-1-0.9l0,0l0,0c-0.2-0.1-0.4-0.1-0.6-0.1h-1.5c-1,0-1.8,0.8-1.8,1.8c0,1,0.8,1.8,1.8,1.8h1.5
			c0.4,0,0.8-0.1,1.1-0.4l7.7,6.6c0.2,0.3,0.5,0.6,0.8,0.7l0,0v0c0.2,0.1,0.5,0.1,0.7,0.1h1.5c1,0,1.8-0.8,1.8-1.8
			S270.3,343.4,269.2,343.4z"/>
	</g>
</g>
</svg>
