<svg xmlns="http://www.w3.org/2000/svg" width="28" height="30" viewBox="0 0 28 30">
  <defs>
    <style>
      .cls-1 {
        fill: #888;
        fill-rule: evenodd;
      }
    </style>
  </defs>
  <path id="形状_2" data-name="形状 2" class="cls-1" d="M634.114,187.672a1.091,1.091,0,0,0,1.56,0,1.13,1.13,0,0,0,0-1.584l-4.321-4.384a13.643,13.643,0,1,0-9.669,4.062,13.539,13.539,0,0,0,3.523-.481,1.12,1.12,0,0,0,.783-1.369,1.1,1.1,0,0,0-1.35-.795,11.366,11.366,0,0,1-2.956.406,11.555,11.555,0,1,1,7.257-2.626,1.13,1.13,0,0,0-.157,1.575" transform="translate(-608 -158)"/>
</svg>
